PathFileType	4	(X/Y/Z)	C:\Users\Basilio\Documents\Thesis Gigler\squatting_fais\c3dfiles\019\SJ_pre1\markers_experimental.trc
DataRate	CameraRate	NumFrames	NumMarkers	Units	OrigDataRate	OrigDataStartFrame	OrigNumFrames
200.000000	200.000000	4	59	mm	200.000000	879	1173
Frame#	Time	FHD			LBHD			RBHD			C7			T10			CLAV			LSHO			LUUPA			LMUPA			LDUPA			LLEP			LMEP			LRAD			LUL			LRFIN			RSHO			RUPA1			RMUPA			RDUPA			RLEP			RMEP			RRAD			RUL			RUFIN			LASI			RASI			USACR			LSACR			RSACR			LTHI1			LTHI2			LTHI3			LTHI4			LLFC			LTIB1			LTIB2			LTIB3			LTIB4			LLMAL			LMMAL			LHEE			LMT1			LMT2			LMT5			RTHI			RTHI2			RTHI3			RTHI4			RLFC			RTIB1			RTIB2			RTIB3			RTIB4			RLMAL			RMMAL			RHEE			RMT1			RMT2			RMT5			
		X1	Y1	Z1	X2	Y2	Z2	X3	Y3	Z3	X4	Y4	Z4	X5	Y5	Z5	X6	Y6	Z6	X7	Y7	Z7	X8	Y8	Z8	X9	Y9	Z9	X10	Y10	Z10	X11	Y11	Z11	X12	Y12	Z12	X13	Y13	Z13	X14	Y14	Z14	X15	Y15	Z15	X16	Y16	Z16	X17	Y17	Z17	X18	Y18	Z18	X19	Y19	Z19	X20	Y20	Z20	X21	Y21	Z21	X22	Y22	Z22	X23	Y23	Z23	X24	Y24	Z24	X25	Y25	Z25	X26	Y26	Z26	X27	Y27	Z27	X28	Y28	Z28	X29	Y29	Z29	X30	Y30	Z30	X31	Y31	Z31	X32	Y32	Z32	X33	Y33	Z33	X34	Y34	Z34	X35	Y35	Z35	X36	Y36	Z36	X37	Y37	Z37	X38	Y38	Z38	X39	Y39	Z39	X40	Y40	Z40	X41	Y41	Z41	X42	Y42	Z42	X43	Y43	Z43	X44	Y44	Z44	X45	Y45	Z45	X46	Y46	Z46	X47	Y47	Z47	X48	Y48	Z48	X49	Y49	Z49	X50	Y50	Z50	X51	Y51	Z51	X52	Y52	Z52	X53	Y53	Z53	X54	Y54	Z54	X55	Y55	Z55	X56	Y56	Z56	X57	Y57	Z57	X58	Y58	Z58	X59	Y59	Z59	

880	4.395	-36.21812438964844	1598.175659179688	-914.1157836914065	-181.0175170898438	1572.239990234375	-1046.161010742188	-174.2053527832032	1570.508911132813	-906.6171875000002	-237.2390136718751	1424.066528320313	-975.330993652344	-373.0909118652344	1166.047119140625	-978.3183593750002	-117.7780532836914	1337.520141601563	-976.770690917969	-166.5773620605469	1399.419921875	-1128.156127929688	-233.2599029541016	1276.3818359375	-1237.574462890625	-242.1335144042969	1233.121826171875	-1216.010131835938	-269.6027221679688	1228.830444335938	-1268.775390625	-328.5444030761719	1197.962768554688	-1322.898681640625	-394.3858947753907	1213.135131835938	-1296.092407226563	-375.5504455566407	984.3055419921877	-1192.518676757813	-360.3532714843751	955.4688720703127	-1251.538940429688	-336.1667175292969	958.3531494140627	-1158.658325195313	-168.5658874511719	1392.467407226563	-835.7202758789065	-287.6419067382813	1307.62890625	-702.0967407226564	-271.1236572265626	1259.719116210938	-699.1787109375001	-318.9591064453126	1257.786376953125	-663.8508911132814	-352.7771911621094	1187.8681640625	-634.7876586914064	-408.8882141113282	1211.02392578125	-661.1444702148439	-394.4224243164064	978.300964355469	-774.5388793945315	-379.0021362304688	944.7131347656252	-718.4158325195314	-352.8728027343751	941.0203247070315	-809.9886474609377	-310.2213439941407	928.5601806640627	-1087.156982421875	-314.8970031738282	920.8129882812502	-880.915222167969	-436.2669677734376	1042.432373046875	-983.2294921875002	-453.1522216796876	1013.916870117188	-1010.615234375	-451.4060363769532	1013.935546875	-953.215759277344	-374.1886596679688	704.1806030273439	-1209.447509765625	-318.5259399414063	641.7564086914064	-1227.3427734375	-273.9590454101563	654.2713012695314	-1213.582763671875	-329.1026000976563	580.2704467773439	-1223.920166015625	-312.5048522949219	485.7075195312501	-1224.543090820313	-276.3687438964844	338.6895751953126	-1218.929443359375	-348.6569824218751	311.6374206542969	-1259.251708984375	-309.4987487792969	299.1477355957032	-1247.001708984375	-318.2522583007813	217.0505828857422	-1220.650146484375	-416.5339965820314	103.650375366211	-1239.870239257813	-377.8808288574219	97.52759552001956	-1163.974731445313	-461.9258728027345	46.21852493286134	-1177.366088867188	-255.2747192382813	56.96177673339845	-1222.5107421875	-263.2877197265626	57.85211563110353	-1261.91650390625	-316.0185546875001	36.35201644897462	-1303.830200195313	-385.3134765625001	765.5629882812501	-770.7565917968752	-335.4772949218751	725.2406005859376	-755.5818481445314	-307.5589294433594	731.4770507812501	-769.371276855469	-340.2361755371094	643.4033203125001	-736.4490356445314	-331.0169067382813	481.5766906738282	-736.0432739257814	-300.9105224609376	295.5435485839844	-752.0032348632814	-383.9238586425782	232.1766815185547	-715.4517822265626	-341.8413391113282	221.3238067626954	-730.8056030273439	-343.0813903808594	175.8199157714844	-767.2094116210939	-427.2312316894532	103.4464187622071	-741.4758300781251	-382.6530456542969	95.9407424926758	-806.6024169921877	-465.0466308593751	46.93247985839844	-802.094177246094	-268.1899108886719	52.75843048095705	-730.1443481445314	-282.8267822265626	58.50305175781251	-687.4075317382814	-340.9949340820313	41.47299957275391	-654.0058593750001	
881	4.4	-37.77500915527344	1602.20263671875	-914.6338500976565	-183.9770050048828	1576.916015625	-1046.340209960938	-175.9279479980469	1574.6318359375	-906.8977661132815	-239.2264709472657	1427.76171875	-975.463073730469	-373.2430114746094	1168.650390625	-978.3710937500002	-118.993637084961	1342.059326171875	-976.9011230468752	-168.6151580810547	1403.591064453125	-1128.181396484375	-234.4881439208985	1280.191284179688	-1237.787231445313	-242.9822540283204	1236.909912109375	-1216.170166015625	-270.4421691894532	1232.28369140625	-1268.907958984375	-329.1096801757813	1200.938842773438	-1323.010986328125	-395.0772705078126	1215.463134765625	-1296.093505859375	-373.9520263671876	986.8853149414065	-1192.545288085938	-358.7205200195313	958.0513916015627	-1251.647094726563	-334.5824890136719	961.0760498046877	-1158.505493164063	-170.4969787597657	1396.600952148438	-835.8088378906252	-289.0225524902344	1310.743286132813	-702.2098388671876	-272.1302185058594	1263.229736328125	-699.2940673828126	-319.7486877441407	1260.741577148438	-663.9517211914064	-353.0508117675782	1190.992309570313	-635.0045166015626	-409.4346008300782	1213.075805664063	-661.3421630859376	-393.4222412109376	980.7438964843752	-774.596618652344	-377.8911437988282	947.3862915039065	-718.4728393554689	-351.5430908203126	943.6037597656252	-809.9966430664065	-308.3984680175782	931.5831298828127	-1087.009521484375	-313.0959472656251	923.7863769531252	-880.742370605469	-435.1806030273439	1044.587768554688	-983.3413085937502	-451.9246826171876	1015.754516601563	-1010.806213378906	-450.5381469726564	1015.984802246094	-953.2971191406252	-373.7040100097657	706.0253906250001	-1208.89404296875	-318.7149658203126	642.6407470703126	-1226.435791015625	-274.1590270996094	654.7214965820314	-1212.4853515625	-330.1834106445313	581.3335571289064	-1222.825927734375	-314.9430541992188	486.5572814941407	-1223.494750976563	-278.1249694824219	339.5438537597657	-1218.017211914063	-350.4394836425782	312.0620117187501	-1258.699584960938	-311.0799560546876	300.0424194335938	-1246.308227539063	-319.2202148437501	217.4915008544922	-1220.138427734375	-416.8158264160157	103.7251739501953	-1239.776733398438	-378.1408691406251	97.55412292480472	-1163.955932617188	-461.9120178222657	46.16510009765626	-1177.437377929688	-255.0520477294922	57.26524353027345	-1221.95458984375	-263.3437500000001	57.96142196655275	-1261.9521484375	-316.0050048828126	36.35216140747071	-1303.779418945313	-384.4332885742189	767.1785888671876	-771.0683593750002	-335.0424194335938	726.2442016601564	-755.9906616210939	-307.1733093261719	732.3181762695314	-769.6672973632815	-340.7864074707032	644.3244018554689	-737.0682983398439	-333.3725585937501	482.2854919433595	-737.1095581054689	-302.4828186035157	296.4250183105469	-752.5152587890626	-385.3243408203126	232.6098785400391	-715.8576049804689	-343.1272888183594	221.8580474853516	-731.0618896484376	-343.7012634277344	176.1438751220703	-767.3450317382814	-427.7455139160157	103.5466690063477	-741.5369262695314	-383.3454284667969	96.14748382568362	-806.4892578125002	-464.9619140625001	46.74852752685548	-802.1265869140627	-268.2847900390626	52.80383682250978	-730.1066284179689	-282.9817199707032	58.60463714599611	-687.3490600585939	-341.0877075195313	41.48398971557618	-653.9446411132814	
882	4.405	-38.89739990234376	1605.8349609375	-914.7244873046877	-184.907455444336	1580.949340820313	-1046.353271484375	-177.6773834228516	1578.904296875	-906.969665527344	-241.1938934326172	1431.3310546875	-975.6106567382815	-373.3661804199219	1171.1845703125	-978.484069824219	-120.6521606445313	1346.498046875	-977.0988769531252	-170.556625366211	1407.631225585938	-1128.375	-235.6243743896485	1283.826538085938	-1237.92626953125	-243.478744506836	1240.35546875	-1216.330688476563	-271.2665100097657	1235.590942382813	-1269.073364257813	-329.6427612304688	1203.787841796875	-1323.099243164063	-395.7398376464845	1217.70556640625	-1296.177124023438	-372.3816833496094	989.3098144531252	-1192.57421875	-357.0616149902344	960.6486816406252	-1251.731079101563	-332.5972290039063	963.680603027344	-1158.522583007813	-172.3502044677735	1400.499389648438	-835.8197021484377	-290.2434997558594	1314.064697265625	-702.2643432617189	-273.0568542480469	1266.540893554688	-699.2812500000001	-320.7098693847657	1263.62353515625	-664.0206298828126	-353.4755859375001	1193.855346679688	-635.1693725585939	-410.0139465332032	1215.447143554688	-661.5310058593751	-392.4093322753907	983.118835449219	-774.7741699218752	-376.7741699218751	949.7454833984377	-718.3574829101564	-350.1747436523438	946.190124511719	-809.9190063476565	-306.7630615234376	934.4697265625002	-1087.005004882813	-311.5997009277344	926.5234985351565	-880.6204833984377	-434.2536010742189	1046.575439453125	-983.384704589844	-451.4100341796876	1018.030578613281	-1010.911560058594	-449.3328857421876	1018.050659179688	-953.2891845703127	-373.0159606933594	707.4885253906251	-1208.298461914063	-318.8540344238282	643.3627929687501	-1225.60498046875	-274.4366455078126	655.2213134765626	-1211.539184570313	-331.3992309570313	582.5186157226564	-1221.86279296875	-317.2078857421876	487.3251037597657	-1222.342895507813	-280.1401062011719	340.3936767578126	-1217.114868164063	-352.2867126464844	312.6370849609376	-1258.032104492188	-312.7584533691407	300.7411499023438	-1245.55712890625	-320.3394775390626	218.0098114013672	-1219.843994140625	-417.0171203613282	103.7381896972657	-1239.618408203125	-378.4271240234376	97.61878204345706	-1163.965698242188	-461.9837951660157	46.17831420898438	-1177.445922851563	-255.0616760253907	57.28325653076173	-1221.90625	-263.5130310058594	58.09987640380861	-1261.879150390625	-316.0071716308594	36.3642921447754	-1303.770874023438	-383.6010131835938	768.8266601562502	-771.3845214843752	-334.7807312011719	727.4660034179689	-756.3189697265626	-306.4337463378907	733.0227661132814	-770.0161743164065	-341.6859436035157	645.4973754882814	-737.8039550781251	-336.0473632812501	483.0944824218751	-738.3812866210939	-304.0817871093751	297.1329650878907	-753.1156005859376	-386.7029724121095	233.0771179199219	-716.2835693359376	-344.3225097656251	222.497543334961	-731.4746093750001	-344.5191040039063	176.6522064208985	-767.5161743164064	-428.085662841797	103.5704116821289	-741.5322265625001	-383.7738647460938	96.26625823974612	-806.461364746094	-465.1513671875001	46.72587203979493	-802.008728027344	-268.3047485351563	52.90852355957033	-730.1218261718751	-283.0240783691407	58.6267547607422	-687.3807983398439	-341.0466003417969	41.36486053466798	-653.9651489257814	
883	4.41	-41.79656982421876	1609.76220703125	-915.757019042969	-187.2817840576172	1585.133056640625	-1046.727416992188	-179.1146850585938	1582.701782226563	-907.2007446289065	-243.1815795898438	1434.718017578125	-975.6723632812502	-373.5769042968751	1173.580932617188	-978.5096435546877	-122.0852661132813	1350.621337890625	-977.2068481445315	-172.4748077392578	1411.51904296875	-1128.51416015625	-236.8354492187501	1287.355346679688	-1238.101928710938	-244.2150878906251	1243.73779296875	-1216.429321289063	-271.8807983398438	1238.805908203125	-1269.152587890625	-330.2603759765626	1206.5419921875	-1323.174682617188	-396.5555114746095	1220.029052734375	-1296.2021484375	-371.1262207031251	991.541687011719	-1192.641479492188	-355.3084716796876	963.227722167969	-1251.7919921875	-330.9593505859376	966.2441406250002	-1158.67578125	-174.1490783691407	1404.426635742188	-835.9797973632815	-291.5490417480469	1316.854248046875	-702.3858032226564	-273.9984130859376	1269.665771484375	-699.3894653320314	-321.7561950683594	1266.323364257813	-664.2042236328126	-354.1400756835938	1196.168579101563	-635.2308349609376	-410.5718994140626	1217.432983398438	-661.6049194335939	-391.3475646972657	985.2768554687502	-774.850769042969	-375.5295410156251	952.1180419921877	-718.5192871093751	-348.7733459472657	948.7173461914065	-809.9077758789065	-304.6435852050782	937.0119628906252	-1086.938354492188	-309.9763793945313	929.1789550781252	-880.4278564453127	-433.357635498047	1048.384155273438	-983.4752197265627	-449.3840942382814	1019.498474121094	-1011.045104980469	-447.9144287109376	1019.635620117188	-953.3754882812502	-372.5857238769532	709.1166992187501	-1207.75146484375	-319.2426757812501	644.2145385742189	-1224.765747070313	-274.6411132812501	655.5332031250001	-1210.604858398438	-332.6165161132813	583.6124877929689	-1220.889892578125	-319.7597961425782	488.1966552734376	-1221.2529296875	-282.0969543457032	341.3340148925782	-1216.228393554688	-353.6029357910157	313.2286682128907	-1257.06005859375	-314.3473510742188	301.4980163574219	-1244.811157226563	-321.2431640625001	218.5307312011719	-1219.337524414063	-417.247039794922	103.7488861083985	-1239.468505859375	-378.7120056152344	97.67523956298831	-1163.937866210938	-462.033172607422	46.17109680175782	-1177.473510742188	-255.1242828369141	57.33261489868165	-1221.923095703125	-263.5442504882813	58.14926528930665	-1261.878295898438	-315.9785766601563	36.41563415527344	-1303.763793945313	-382.7708740234376	770.4277343750002	-771.7456665039065	-335.9414367675782	724.6115112304689	-754.9404296875001	-306.0295410156251	733.7761840820314	-770.5046997070315	-342.3961791992188	646.5314941406251	-738.4050903320314	-338.1809692382813	483.5557861328126	-739.3337402343751	-305.7524414062501	297.7416076660157	-753.6456909179689	-388.1965637207032	233.4532623291016	-716.5767211914064	-345.3100891113282	223.1117858886719	-731.7050170898439	-345.3780212402344	177.0449829101563	-767.7189331054689	-428.4339294433595	103.4733810424805	-741.5596923828126	-384.1552734375001	96.35625457763675	-806.4121704101565	-465.1229858398439	46.68760299682618	-802.0238037109377	-268.3918762207032	52.96261215209962	-730.0918579101564	-283.0652465820313	58.6477737426758	-687.3186035156251	-341.1473693847657	41.39611816406251	-653.9214477539064	
